<svg xmlns="http://www.w3.org/2000/svg" viewBox="0 0 800 280">
  <rect width="800" height="280" fill="#f8f9fa" rx="10"/>
  
  <text x="400" y="22" text-anchor="middle" font-family="Arial, sans-serif" font-size="15" font-weight="bold" fill="#2c3e50">支架零件 CAM 工序拆解</text>
  
  <!-- Op 1 -->
  <rect x="20" y="50" width="170" height="100" fill="#e3f2fd" stroke="#1976d2" stroke-width="2" rx="5"/>
  <rect x="20" y="50" width="170" height="25" fill="#1976d2" rx="5"/>
  <text x="105" y="67" text-anchor="middle" font-family="Arial, sans-serif" font-size="11" font-weight="bold" fill="white">工序 1: 毛坯准备</text>
  <text x="30" y="92" font-family="Arial, sans-serif" font-size="9" fill="#333">毛坯：200×150×12 mm 钢板</text>
  <text x="30" y="108" font-family="Arial, sans-serif" font-size="9" fill="#333">装夹：虎钳</text>
  <text x="30" y="124" font-family="Arial, sans-serif" font-size="9" fill="#333">坐标：底面中心 G54</text>
  <text x="30" y="140" font-family="Arial, sans-serif" font-size="9" fill="#666">无刀具移动</text>
  
  <!-- Arrow -->
  <polygon points="195,100 210,95 210,105" fill="#666"/>
  <line x1="190" y1="100" x2="210" y2="100" stroke="#666" stroke-width="2"/>
  
  <!-- Op 2 -->
  <rect x="215" y="50" width="170" height="100" fill="#fff3e0" stroke="#f57c00" stroke-width="2" rx="5"/>
  <rect x="215" y="50" width="170" height="25" fill="#f57c00" rx="5"/>
  <text x="300" y="67" text-anchor="middle" font-family="Arial, sans-serif" font-size="11" font-weight="bold" fill="white">工序 2: 底板粗加工</text>
  <text x="225" y="92" font-family="Arial, sans-serif" font-size="9" fill="#333">刀具：Ø10 平底立铣刀</text>
  <text x="225" y="108" font-family="Arial, sans-serif" font-size="9" fill="#333">策略：型腔铣削</text>
  <text x="225" y="124" font-family="Arial, sans-serif" font-size="9" fill="#333">深度：12→10.5 mm</text>
  <text x="225" y="140" font-family="Arial, sans-serif" font-size="9" fill="#666">主轴 6000 RPM</text>
  
  <!-- Arrow -->
  <polygon points="390,100 405,95 405,105" fill="#666"/>
  <line x1="385" y1="100" x2="405" y2="100" stroke="#666" stroke-width="2"/>
  
  <!-- Op 3 -->
  <rect x="410" y="50" width="170" height="100" fill="#e8f5e9" stroke="#388e3c" stroke-width="2" rx="5"/>
  <rect x="410" y="50" width="170" height="25" fill="#388e3c" rx="5"/>
  <text x="495" y="67" text-anchor="middle" font-family="Arial, sans-serif" font-size="11" font-weight="bold" fill="white">工序 3: 底板精加工</text>
  <text x="420" y="92" font-family="Arial, sans-serif" font-size="9" fill="#333">刀具：Ø6 平底立铣刀</text>
  <text x="420" y="108" font-family="Arial, sans-serif" font-size="9" fill="#333">策略：轮廓铣削</text>
  <text x="420" y="124" font-family="Arial, sans-serif" font-size="9" fill="#333">深度：10.5→10 mm</text>
  <text x="420" y="140" font-family="Arial, sans-serif" font-size="9" fill="#666">主轴 8000 RPM</text>
  
  <!-- Arrow -->
  <polygon points="585,100 600,95 600,105" fill="#666"/>
  <line x1="580" y1="100" x2="600" y2="100" stroke="#666" stroke-width="2"/>
  
  <!-- Op 4 -->
  <rect x="605" y="50" width="170" height="100" fill="#f3e5f5" stroke="#7b1fa2" stroke-width="2" rx="5"/>
  <rect x="605" y="50" width="170" height="25" fill="#7b1fa2" rx="5"/>
  <text x="690" y="67" text-anchor="middle" font-family="Arial, sans-serif" font-size="11" font-weight="bold" fill="white">工序 4: 立板加工</text>
  <text x="615" y="92" font-family="Arial, sans-serif" font-size="9" fill="#333">刀具：Ø6 平底立铣刀</text>
  <text x="615" y="108" font-family="Arial, sans-serif" font-size="9" fill="#333">策略：外轮廓铣削</text>
  <text x="615" y="124" font-family="Arial, sans-serif" font-size="9" fill="#333">深度：10 mm 全厚</text>
  <text x="615" y="140" font-family="Arial, sans-serif" font-size="9" fill="#666">翻转装夹</text>
  
  <!-- Op 5 -->
  <rect x="20" y="170" width="270" height="90" fill="#ffebee" stroke="#c62828" stroke-width="2" rx="5"/>
  <rect x="20" y="170" width="270" height="25" fill="#c62828" rx="5"/>
  <text x="155" y="187" text-anchor="middle" font-family="Arial, sans-serif" font-size="11" font-weight="bold" fill="white">工序 5: 底板 Ø8 孔（2 个）</text>
  <text x="30" y="212" font-family="Arial, sans-serif" font-size="9" fill="#333">刀具：Ø8 钻头</text>
  <text x="30" y="228" font-family="Arial, sans-serif" font-size="9" fill="#333">策略：G81 钻孔循环</text>
  <text x="30" y="244" font-family="Arial, sans-serif" font-size="9" fill="#333">深度：贯穿（10 mm）</text>
  <text x="160" y="212" font-family="Arial, sans-serif" font-size="9" fill="#666">位置：(50,0) 和 (150,0)</text>
  <text x="160" y="228" font-family="Arial, sans-serif" font-size="9" fill="#666">主轴 2500 RPM</text>
  
  <!-- Arrow -->
  <polygon points="295,215 310,210 310,220" fill="#666"/>
  <line x1="290" y1="215" x2="310" y2="215" stroke="#666" stroke-width="2"/>
  
  <!-- Op 6 -->
  <rect x="315" y="170" width="270" height="90" fill="#e0f7fa" stroke="#00838f" stroke-width="2" rx="5"/>
  <rect x="315" y="170" width="270" height="25" fill="#00838f" rx="5"/>
  <text x="450" y="187" text-anchor="middle" font-family="Arial, sans-serif" font-size="11" font-weight="bold" fill="white">工序 6: 立板 Ø6 孔（2 个）</text>
  <text x="325" y="212" font-family="Arial, sans-serif" font-size="9" fill="#333">刀具：Ø6 钻头</text>
  <text x="325" y="228" font-family="Arial, sans-serif" font-size="9" fill="#333">策略：G81 钻孔循环</text>
  <text x="325" y="244" font-family="Arial, sans-serif" font-size="9" fill="#333">深度：贯穿（10 mm）</text>
  <text x="455" y="212" font-family="Arial, sans-serif" font-size="9" fill="#666">位置：(20,50) 和 (20,100)</text>
  <text x="455" y="228" font-family="Arial, sans-serif" font-size="9" fill="#666">主轴 3000 RPM</text>
  
  <!-- Arrow -->
  <polygon points="590,215 605,210 605,220" fill="#666"/>
  <line x1="585" y1="215" x2="605" y2="215" stroke="#666" stroke-width="2"/>
  
  <!-- Op 7 -->
  <rect x="610" y="170" width="170" height="90" fill="#fce4ec" stroke="#ad1457" stroke-width="2" rx="5"/>
  <rect x="610" y="170" width="170" height="25" fill="#ad1457" rx="5"/>
  <text x="695" y="187" text-anchor="middle" font-family="Arial, sans-serif" font-size="11" font-weight="bold" fill="white">工序 7: 去毛刺</text>
  <text x="620" y="212" font-family="Arial, sans-serif" font-size="9" fill="#333">刀具：手动或倒角刀</text>
  <text x="620" y="228" font-family="Arial, sans-serif" font-size="9" fill="#333">策略：所有锐边</text>
  <text x="620" y="244" font-family="Arial, sans-serif" font-size="9" fill="#666">倒角 0.5 × 45°</text>
</svg>