<svg xmlns="http://www.w3.org/2000/svg" viewBox="0 0 800 240">
  <rect width="800" height="240" fill="#f8f9fa" rx="10"/>
  
  <text x="400" y="22" text-anchor="middle" font-family="Arial, sans-serif" font-size="15" font-weight="bold" fill="#2c3e50">支架零件 Capstone 项目流程</text>
  
  <!-- Phase 1 -->
  <rect x="20" y="50" width="150" height="70" fill="#e3f2fd" stroke="#1976d2" stroke-width="2" rx="5"/>
  <text x="95" y="72" text-anchor="middle" font-family="Arial, sans-serif" font-size="11" font-weight="bold" fill="#333">阶段 1: 需求分析</text>
  <text x="95" y="90" text-anchor="middle" font-family="Arial, sans-serif" font-size="9" fill="#555">功能需求</text>
  <text x="95" y="103" text-anchor="middle" font-family="Arial, sans-serif" font-size="9" fill="#555">材料选择</text>
  
  <!-- Arrow -->
  <polygon points="175,85 190,80 190,90" fill="#666"/>
  <line x1="170" y1="85" x2="190" y2="85" stroke="#666" stroke-width="2"/>
  
  <!-- Phase 2 -->
  <rect x="195" y="50" width="150" height="70" fill="#fff3e0" stroke="#f57c00" stroke-width="2" rx="5"/>
  <text x="270" y="72" text-anchor="middle" font-family="Arial, sans-serif" font-size="11" font-weight="bold" fill="#333">阶段 2: CAD 建模</text>
  <text x="270" y="90" text-anchor="middle" font-family="Arial, sans-serif" font-size="9" fill="#555">草图 + 特征</text>
  <text x="270" y="103" text-anchor="middle" font-family="Arial, sans-serif" font-size="9" fill="#555">FCStd</text>
  
  <!-- Arrow -->
  <polygon points="350,85 365,80 365,90" fill="#666"/>
  <line x1="345" y1="85" x2="365" y2="85" stroke="#666" stroke-width="2"/>
  
  <!-- Phase 3 -->
  <rect x="370" y="50" width="150" height="70" fill="#e8f5e9" stroke="#388e3c" stroke-width="2" rx="5"/>
  <text x="445" y="72" text-anchor="middle" font-family="Arial, sans-serif" font-size="11" font-weight="bold" fill="#333">阶段 3: 导出验证</text>
  <text x="445" y="90" text-anchor="middle" font-family="Arial, sans-serif" font-size="9" fill="#555">STEP/STL</text>
  <text x="445" y="103" text-anchor="middle" font-family="Arial, sans-serif" font-size="9" fill="#555">检查清单</text>
  
  <!-- Arrow -->
  <polygon points="525,85 540,80 540,90" fill="#666"/>
  <line x1="520" y1="85" x2="540" y2="85" stroke="#666" stroke-width="2"/>
  
  <!-- Phase 4 -->
  <rect x="545" y="50" width="130" height="70" fill="#f3e5f5" stroke="#7b1fa2" stroke-width="2" rx="5"/>
  <text x="610" y="72" text-anchor="middle" font-family="Arial, sans-serif" font-size="11" font-weight="bold" fill="#333">阶段 4: CAM 规划</text>
  <text x="610" y="90" text-anchor="middle" font-family="Arial, sans-serif" font-size="9" fill="#555">工序 + 刀具</text>
  <text x="610" y="103" text-anchor="middle" font-family="Arial, sans-serif" font-size="9" fill="#555">worksheet</text>
  
  <!-- Arrow -->
  <polygon points="680,85 695,80 695,90" fill="#666"/>
  <line x1="675" y1="85" x2="695" y2="85" stroke="#666" stroke-width="2"/>
  
  <!-- Phase 5 -->
  <rect x="700" y="50" width="80" height="70" fill="#ffebee" stroke="#c62828" stroke-width="2" rx="5"/>
  <text x="740" y="68" text-anchor="middle" font-family="Arial, sans-serif" font-size="10" font-weight="bold" fill="#333">阶段 5</text>
  <text x="740" y="82" text-anchor="middle" font-family="Arial, sans-serif" font-size="10" font-weight="bold" fill="#333">G-code</text>
  <text x="740" y="98" text-anchor="middle" font-family="Arial, sans-serif" font-size="9" fill="#555">理解</text>
  
  <!-- Bottom: Deliverables -->
  <rect x="20" y="135" width="760" height="85" fill="#ffffff" stroke="#ccc" stroke-width="1" rx="5"/>
  <text x="400" y="155" text-anchor="middle" font-family="Arial, sans-serif" font-size="11" font-weight="bold" fill="#555">每阶段产出物</text>
  <text x="35" y="173" font-family="Arial, sans-serif" font-size="9" fill="#333">阶段 1: 需求文档、材料清单</text>
  <text x="35" y="188" font-family="Arial, sans-serif" font-size="9" fill="#333">阶段 2: bracket.FCStd（参数化模型）</text>
  <text x="35" y="203" font-family="Arial, sans-serif" font-size="9" fill="#333">阶段 3: bracket-v1.step, bracket-v1.stl, checklist.md</text>
  <text x="410" y="173" font-family="Arial, sans-serif" font-size="9" fill="#333">阶段 4: cam-task-list.md, tool-list.csv, worksheet.md</text>
  <text x="410" y="188" font-family="Arial, sans-serif" font-size="9" fill="#333">阶段 5: 理解的 G-code 路径、笔记</text>
  <text x="410" y="203" font-family="Arial, sans-serif" font-size="9" fill="#666">✓ 提交包: 所有文件 + 反思笔记</text>
</svg>