<svg xmlns="http://www.w3.org/2000/svg" viewBox="0 0 800 120">
  <rect width="800" height="120" fill="#f8f9fa"/>
  
  <!-- Boxes -->
  <rect x="20" y="30" width="100" height="50" rx="4" fill="#e3f2fd" stroke="#1976d2" stroke-width="2"/>
  <rect x="160" y="30" width="100" height="50" rx="4" fill="#fff3e0" stroke="#f57c00" stroke-width="2"/>
  <rect x="300" y="30" width="100" height="50" rx="4" fill="#f3e5f5" stroke="#7b1fa2" stroke-width="2"/>
  <rect x="440" y="30" width="100" height="50" rx="4" fill="#e8f5e9" stroke="#388e3c" stroke-width="2"/>
  <rect x="580" y="30" width="100" height="50" rx="4" fill="#fce4ec" stroke="#c2185b" stroke-width="2"/>
  <rect x="720" y="30" width="60" height="50" rx="4" fill="#fff8e1" stroke="#ffa000" stroke-width="2"/>
  
  <!-- Arrows -->
  <polygon points="125,55 140,50 140,60" fill="#666"/>
  <line x1="120" y1="55" x2="140" y2="55" stroke="#666" stroke-width="2"/>
  
  <polygon points="265,55 280,50 280,60" fill="#666"/>
  <line x1="260" y1="55" x2="280" y2="55" stroke="#666" stroke-width="2"/>
  
  <polygon points="405,55 420,50 420,60" fill="#666"/>
  <line x1="400" y1="55" x2="420" y2="55" stroke="#666" stroke-width="2"/>
  
  <polygon points="545,55 560,50 560,60" fill="#666"/>
  <line x1="540" y1="55" x2="560" y2="55" stroke="#666" stroke-width="2"/>
  
  <polygon points="685,55 700,50 700,60" fill="#666"/>
  <line x1="680" y1="55" x2="700" y2="55" stroke="#666" stroke-width="2"/>
  
  <!-- Labels -->
  <text x="70" y="58" font-size="12" text-anchor="middle" fill="#333">CAD 建模</text>
  <text x="210" y="58" font-size="12" text-anchor="middle" fill="#333">工程图</text>
  <text x="350" y="58" font-size="12" text-anchor="middle" fill="#333">工艺分析</text>
  <text x="490" y="58" font-size="12" text-anchor="middle" fill="#333">刀具路径</text>
  <text x="630" y="58" font-size="12" text-anchor="middle" fill="#333">后处理</text>
  <text x="750" y="58" font-size="12" text-anchor="middle" fill="#333">G-code</text>
  
  <!-- Bottom labels -->
  <text x="70" y="100" font-size="10" text-anchor="middle" fill="#666">SolidWorks</text>
  <text x="350" y="100" font-size="10" text-anchor="middle" fill="#666">CAPP</text>
  <text x="490" y="100" font-size="10" text-anchor="middle" fill="#666">CAM</text>
  <text x="630" y="100" font-size="10" text-anchor="middle" fill="#666">Post</text>
</svg>