<svg xmlns="http://www.w3.org/2000/svg" viewBox="0 0 700 200">
  <rect width="700" height="200" fill="#f8f9fa"/>
  
  <!-- Title -->
  <text x="350" y="20" font-size="14" text-anchor="middle" fill="#333" font-weight="bold">数据交换格式与系统流转</text>
  
  <!-- System boxes -->
  <rect x="30" y="50" width="100" height="40" rx="4" fill="#e3f2fd" stroke="#1976d2" stroke-width="2"/>
  <rect x="200" y="50" width="100" height="40" rx="4" fill="#fff3e0" stroke="#f57c00" stroke-width="2"/>
  <rect x="370" y="50" width="100" height="40" rx="4" fill="#f3e5f5" stroke="#7b1fa2" stroke-width="2"/>
  <rect x="540" y="50" width="100" height="40" rx="4" fill="#e8f5e9" stroke="#388e3c" stroke-width="2"/>
  
  <!-- Arrows between systems -->
  <line x1="130" y1="70" x2="200" y2="70" stroke="#666" stroke-width="2"/>
  <polygon points="195,65 205,70 195,75" fill="#666"/>
  
  <line x1="300" y1="70" x2="370" y2="70" stroke="#666" stroke-width="2"/>
  <polygon points="365,65 375,70 365,75" fill="#666"/>
  
  <line x1="470" y1="70" x2="540" y2="70" stroke="#666" stroke-width="2"/>
  <polygon points="535,65 545,70 535,75" fill="#666"/>
  
  <!-- System labels -->
  <text x="80" y="74" font-size="11" text-anchor="middle" fill="#333">CAD</text>
  <text x="250" y="74" font-size="11" text-anchor="middle" fill="#333">CAE</text>
  <text x="420" y="74" font-size="11" text-anchor="middle" fill="#333">CAM</text>
  <text x="590" y="74" font-size="11" text-anchor="middle" fill="#333">3D 打印</text>
  
  <!-- Format boxes below arrows -->
  <rect x="140" y="105" width="50" height="22" rx="2" fill="#e1f5fe" stroke="#0288d1" stroke-width="1"/>
  <rect x="310" y="105" width="50" height="22" rx="2" fill="#e1f5fe" stroke="#0288d1" stroke-width="1"/>
  <rect x="480" y="105" width="50" height="22" rx="2" fill="#e1f5fe" stroke="#0288d1" stroke-width="1"/>
  
  <text x="165" y="121" font-size="9" text-anchor="middle" fill="#01579b">STEP</text>
  <text x="335" y="121" font-size="9" text-anchor="middle" fill="#01579b">STEP</text>
  <text x="505" y="121" font-size="9" text-anchor="middle" fill="#01579b">STL</text>
  
  <!-- Bottom format comparison -->
  <rect x="50" y="150" width="120" height="35" rx="3" fill="#fff" stroke="#ddd" stroke-width="1"/>
  <rect x="190" y="150" width="120" height="35" rx="3" fill="#fff" stroke="#ddd" stroke-width="1"/>
  <rect x="330" y="150" width="120" height="35" rx="3" fill="#fff" stroke="#ddd" stroke-width="1"/>
  <rect x="470" y="150" width="120" height="35" rx="3" fill="#fff" stroke="#ddd" stroke-width="1"/>
  
  <text x="110" y="165" font-size="10" text-anchor="middle" fill="#333" font-weight="bold">STEP</text>
  <text x="250" y="165" font-size="10" text-anchor="middle" fill="#333" font-weight="bold">IGES</text>
  <text x="390" y="165" font-size="10" text-anchor="middle" fill="#333" font-weight="bold">STL</text>
  <text x="530" y="165" font-size="10" text-anchor="middle" fill="#333" font-weight="bold">G-code</text>
  
  <text x="110" y="178" font-size="8" text-anchor="middle" fill="#666">精确 B-rep</text>
  <text x="250" y="178" font-size="8" text-anchor="middle" fill="#666">曲面交换</text>
  <text x="390" y="178" font-size="8" text-anchor="middle" fill="#666">三角网格</text>
  <text x="530" y="178" font-size="8" text-anchor="middle" fill="#666">加工指令</text>
</svg>