<svg xmlns="http://www.w3.org/2000/svg" viewBox="0 0 800 200">
  <rect width="800" height="200" fill="#f8f9fa" rx="10"/>
  
  <text x="400" y="25" text-anchor="middle" font-family="Arial, sans-serif" font-size="16" font-weight="bold" fill="#2c3e50">FreeCAD 导出检查流程</text>
  
  <!-- Step 1 -->
  <rect x="20" y="50" width="130" height="60" fill="#e3f2fd" stroke="#1976d2" stroke-width="2" rx="5"/>
  <text x="85" y="72" text-anchor="middle" font-family="Arial, sans-serif" font-size="11" font-weight="bold" fill="#333">FreeCAD 模型</text>
  <text x="85" y="90" text-anchor="middle" font-family="Arial, sans-serif" font-size="9" fill="#666">建模完成</text>
  <text x="85" y="102" text-anchor="middle" font-family="Arial, sans-serif" font-size="9" fill="#666">.FCStd</text>
  
  <!-- Arrow 1 -->
  <polygon points="155,80 170,75 170,85" fill="#666"/>
  <line x1="150" y1="80" x2="170" y2="80" stroke="#666" stroke-width="2"/>
  
  <!-- Step 2 -->
  <rect x="175" y="50" width="130" height="60" fill="#fff3e0" stroke="#f57c00" stroke-width="2" rx="5"/>
  <text x="240" y="72" text-anchor="middle" font-family="Arial, sans-serif" font-size="11" font-weight="bold" fill="#333">导出检查</text>
  <text x="240" y="90" text-anchor="middle" font-family="Arial, sans-serif" font-size="9" fill="#666">尺寸/约束/孔</text>
  <text x="240" y="102" text-anchor="middle" font-family="Arial, sans-serif" font-size="9" fill="#666">单位/原点</text>
  
  <!-- Arrow 2 -->
  <polygon points="310,80 325,75 325,85" fill="#666"/>
  <line x1="305" y1="80" x2="325" y2="80" stroke="#666" stroke-width="2"/>
  
  <!-- Step 3 -->
  <rect x="330" y="50" width="130" height="60" fill="#e8f5e9" stroke="#388e3c" stroke-width="2" rx="5"/>
  <text x="395" y="72" text-anchor="middle" font-family="Arial, sans-serif" font-size="11" font-weight="bold" fill="#333">导出 STEP</text>
  <text x="395" y="90" text-anchor="middle" font-family="Arial, sans-serif" font-size="9" fill="#666">精确几何</text>
  <text x="395" y="102" text-anchor="middle" font-family="Arial, sans-serif" font-size="9" fill="#666">.step</text>
  
  <!-- Arrow 3 -->
  <polygon points="465,80 480,75 480,85" fill="#666"/>
  <line x1="460" y1="80" x2="480" y2="80" stroke="#666" stroke-width="2"/>
  
  <!-- Step 4 -->
  <rect x="485" y="50" width="130" height="60" fill="#f3e5f5" stroke="#7b1fa2" stroke-width="2" rx="5"/>
  <text x="550" y="72" text-anchor="middle" font-family="Arial, sans-serif" font-size="11" font-weight="bold" fill="#333">导出 STL</text>
  <text x="550" y="90" text-anchor="middle" font-family="Arial, sans-serif" font-size="9" fill="#666">网格化</text>
  <text x="550" y="102" text-anchor="middle" font-family="Arial, sans-serif" font-size="9" fill="#666">.stl</text>
  
  <!-- Arrow 4 -->
  <polygon points="620,80 635,75 635,85" fill="#666"/>
  <line x1="615" y1="80" x2="635" y2="80" stroke="#666" stroke-width="2"/>
  
  <!-- Step 5 -->
  <rect x="640" y="50" width="140" height="60" fill="#ffebee" stroke="#c62828" stroke-width="2" rx="5"/>
  <text x="710" y="72" text-anchor="middle" font-family="Arial, sans-serif" font-size="11" font-weight="bold" fill="#333">打开验证</text>
  <text x="710" y="90" text-anchor="middle" font-family="Arial, sans-serif" font-size="9" fill="#666">其他 CAD</text>
  <text x="710" y="102" text-anchor="middle" font-family="Arial, sans-serif" font-size="9" fill="#666">切片软件</text>
  
  <!-- Bottom branches -->
  <line x1="395" y1="110" x2="395" y2="130" stroke="#388e3c" stroke-width="1.5" stroke-dasharray="3,2"/>
  <text x="395" y="145" text-anchor="middle" font-family="Arial, sans-serif" font-size="9" fill="#388e3c">→ CAD 交换 / CAM 编程 / CAE 分析</text>
  
  <line x1="550" y1="110" x2="550" y2="155" stroke="#7b1fa2" stroke-width="1.5" stroke-dasharray="3,2"/>
  <text x="550" y="170" text-anchor="middle" font-family="Arial, sans-serif" font-size="9" fill="#7b1fa2">→ 3D 打印 / 网格预览</text>
  
  <!-- Feedback loop -->
  <path d="M 710 130 Q 400 180 85 130" stroke="#999" stroke-width="1.5" stroke-dasharray="4,3" fill="none" marker-end="url(#arr)"/>
  <defs>
    <marker id="arr" markerWidth="8" markerHeight="6" refX="7" refY="3" orient="auto">
      <polygon points="0 0, 8 3, 0 6" fill="#999"/>
    </marker>
  </defs>
  <text x="400" y="185" text-anchor="middle" font-family="Arial, sans-serif" font-size="9" fill="#999">发现问题 → 回到模型修改 → 重新导出</text>
</svg>
