<svg xmlns="http://www.w3.org/2000/svg" viewBox="0 0 700 200">
  <rect width="700" height="200" fill="#f8f9fa" rx="10"/>
  
  <text x="350" y="28" text-anchor="middle" font-family="Arial, sans-serif" font-size="16" font-weight="bold" fill="#2c3e50">FreeCAD Part Design 工作流</text>
  
  <!-- Step boxes -->
  <rect x="20" y="55" width="110" height="50" fill="#e3f2fd" stroke="#1976d2" stroke-width="2" rx="5"/>
  <text x="75" y="75" text-anchor="middle" font-family="Arial, sans-serif" font-size="11" font-weight="bold" fill="#333">1. 新建文档</text>
  <text x="75" y="92" text-anchor="middle" font-family="Arial, sans-serif" font-size="9" fill="#666">File → New</text>
  
  <rect x="150" y="55" width="110" height="50" fill="#e8f5e9" stroke="#388e3c" stroke-width="2" rx="5"/>
  <text x="205" y="75" text-anchor="middle" font-family="Arial, sans-serif" font-size="11" font-weight="bold" fill="#333">2. 创建实体</text>
  <text x="205" y="92" text-anchor="middle" font-family="Arial, sans-serif" font-size="9" fill="#666">Pad / Pocket</text>
  
  <rect x="280" y="55" width="110" height="50" fill="#fff3e0" stroke="#f57c00" stroke-width="2" rx="5"/>
  <text x="335" y="75" text-anchor="middle" font-family="Arial, sans-serif" font-size="11" font-weight="bold" fill="#333">3. 添加特征</text>
  <text x="335" y="92" text-anchor="middle" font-family="Arial, sans-serif" font-size="9" fill="#666">Hole / Chamfer</text>
  
  <rect x="410" y="55" width="110" height="50" fill="#f3e5f5" stroke="#7b1fa2" stroke-width="2" rx="5"/>
  <text x="465" y="75" text-anchor="middle" font-family="Arial, sans-serif" font-size="11" font-weight="bold" fill="#333">4. 导出 STEP</text>
  <text x="465" y="92" text-anchor="middle" font-family="Arial, sans-serif" font-size="9" fill="#666">File → Export</text>
  
  <rect x="540" y="55" width="110" height="50" fill="#ffebee" stroke="#c62828" stroke-width="2" rx="5"/>
  <text x="595" y="75" text-anchor="middle" font-family="Arial, sans-serif" font-size="11" font-weight="bold" fill="#333">5. 导出 STL</text>
  <text x="595" y="92" text-anchor="middle" font-family="Arial, sans-serif" font-size="9" fill="#666">Mesh → Export</text>
  
  <!-- Arrows -->
  <defs>
    <marker id="arr" markerWidth="8" markerHeight="6" refX="7" refY="3" orient="auto">
      <polygon points="0 0, 8 3, 0 6" fill="#666"/>
    </marker>
  </defs>
  
  <line x1="130" y1="80" x2="150" y2="80" stroke="#666" stroke-width="2" marker-end="url(#arr)"/>
  <line x1="260" y1="80" x2="280" y2="80" stroke="#666" stroke-width="2" marker-end="url(#arr)"/>
  <line x1="390" y1="80" x2="410" y2="80" stroke="#666" stroke-width="2" marker-end="url(#arr)"/>
  <line x1="520" y1="80" x2="540" y2="80" stroke="#666" stroke-width="2" marker-end="url(#arr)"/>
  
  <!-- Bottom note -->
  <text x="350" y="140" text-anchor="middle" font-family="Arial, sans-serif" font-size="11" fill="#666">Part Design 工作区：基于特征的参数化建模，与 SolidWorks/Fusion 类似</text>
  
  <!-- Workbench selector hint -->
  <rect x="200" y="160" width="300" height="28" fill="#eceff1" stroke="#546e7a" stroke-width="1" rx="3"/>
  <text x="350" y="178" text-anchor="middle" font-family="Arial, sans-serif" font-size="10" fill="#37474f">工作区选择器：Part Design | Sketcher | Mesh | Spreadsheet</text>
</svg>
