<svg xmlns="http://www.w3.org/2000/svg" viewBox="0 0 800 240">
  <rect width="800" height="240" fill="#f8f9fa" rx="10"/>
  
  <text x="400" y="22" text-anchor="middle" font-family="Arial, sans-serif" font-size="15" font-weight="bold" fill="#2c3e50">FreeCAD 五步学习路线</text>
  
  <!-- Step 1 -->
  <rect x="20" y="50" width="130" height="60" fill="#e3f2fd" stroke="#1976d2" stroke-width="2" rx="5"/>
  <text x="85" y="72" text-anchor="middle" font-family="Arial, sans-serif" font-size="10" font-weight="bold" fill="#333">Step 1: 建模</text>
  <text x="85" y="88" text-anchor="middle" font-family="Arial, sans-serif" font-size="8" fill="#555">freecad-plate-modeling</text>
  <text x="85" y="100" text-anchor="middle" font-family="Arial, sans-serif" font-size="8" fill="#666">建带孔矩形板</text>
  
  <!-- Arrow -->
  <polygon points="155,80 170,75 170,85" fill="#666"/>
  <line x1="150" y1="80" x2="170" y2="80" stroke="#666" stroke-width="2"/>
  
  <!-- Step 2 -->
  <rect x="175" y="50" width="130" height="60" fill="#fff3e0" stroke="#f57c00" stroke-width="2" rx="5"/>
  <text x="240" y="72" text-anchor="middle" font-family="Arial, sans-serif" font-size="10" font-weight="bold" fill="#333">Step 2: 导出</text>
  <text x="240" y="88" text-anchor="middle" font-family="Arial, sans-serif" font-size="8" fill="#555">freecad-export-checklist</text>
  <text x="240" y="100" text-anchor="middle" font-family="Arial, sans-serif" font-size="8" fill="#666">STEP/STL 检查</text>
  
  <!-- Arrow -->
  <polygon points="310,80 325,75 325,85" fill="#666"/>
  <line x1="305" y1="80" x2="325" y2="80" stroke="#666" stroke-width="2"/>
  
  <!-- Step 3 -->
  <rect x="330" y="50" width="130" height="60" fill="#e8f5e9" stroke="#388e3c" stroke-width="2" rx="5"/>
  <text x="395" y="72" text-anchor="middle" font-family="Arial, sans-serif" font-size="10" font-weight="bold" fill="#333">Step 3: CAM</text>
  <text x="395" y="88" text-anchor="middle" font-family="Arial, sans-serif" font-size="10" font-weight="bold" fill="#333">任务规划</text>
  <text x="395" y="102" text-anchor="middle" font-family="Arial, sans-serif" font-size="8" fill="#555">freecad-to-cam-worksheet</text>
  
  <!-- Arrow -->
  <polygon points="465,80 480,75 480,85" fill="#666"/>
  <line x1="460" y1="80" x2="480" y2="80" stroke="#666" stroke-width="2"/>
  
  <!-- Step 4 -->
  <rect x="485" y="50" width="130" height="60" fill="#f3e5f5" stroke="#7b1fa2" stroke-width="2" rx="5"/>
  <text x="550" y="72" text-anchor="middle" font-family="Arial, sans-serif" font-size="10" font-weight="bold" fill="#333">Step 4: G-code</text>
  <text x="550" y="88" text-anchor="middle" font-family="Arial, sans-serif" font-size="8" fill="#555">gcode-toolpath-</text>
  <text x="550" y="100" text-anchor="middle" font-family="Arial, sans-serif" font-size="8" fill="#555">visualization</text>
  
  <!-- Arrow -->
  <polygon points="620,80 635,75 635,85" fill="#666"/>
  <line x1="615" y1="80" x2="635" y2="80" stroke="#666" stroke-width="2"/>
  
  <!-- Step 5 -->
  <rect x="640" y="50" width="140" height="60" fill="#ffebee" stroke="#c62828" stroke-width="2" rx="5"/>
  <text x="710" y="72" text-anchor="middle" font-family="Arial, sans-serif" font-size="10" font-weight="bold" fill="#333">Step 5: 完整链路</text>
  <text x="710" y="88" text-anchor="middle" font-family="Arial, sans-serif" font-size="8" fill="#555">cad-to-gcode</text>
  <text x="710" y="100" text-anchor="middle" font-family="Arial, sans-serif" font-size="8" fill="#666">step-stl-mini-lab</text>
  
  <!-- Bottom: Skills acquired -->
  <rect x="20" y="130" width="760" height="90" fill="#ffffff" stroke="#ccc" stroke-width="1" rx="5"/>
  <text x="400" y="150" text-anchor="middle" font-family="Arial, sans-serif" font-size="11" font-weight="bold" fill="#555">每步核心技能</text>
  <text x="35" y="170" font-family="Arial, sans-serif" font-size="9" fill="#333">Step 1: 草图约束、特征建模</text>
  <text x="35" y="185" font-family="Arial, sans-serif" font-size="9" fill="#333">Step 2: 文件格式、单位、验证</text>
  <text x="35" y="200" font-family="Arial, sans-serif" font-size="9" fill="#333">Step 3: 工序拆解、刀具选择</text>
  <text x="35" y="215" font-family="Arial, sans-serif" font-size="9" fill="#333">Step 4: G-code 解读、路径理解</text>
  <text x="410" y="170" font-family="Arial, sans-serif" font-size="9" fill="#333">Step 5: 全链路整合、格式对比</text>
  <text x="410" y="185" font-family="Arial, sans-serif" font-size="9" fill="#333">✓ 可独立完成简单零件 CAD→CAM</text>
  <text x="410" y="200" font-family="Arial, sans-serif" font-size="9" fill="#333">✓ 能检查导出质量</text>
  <text x="410" y="215" font-family="Arial, sans-serif" font-size="9" fill="#333">✓ 能规划加工工序</text>
</svg>